<?xml version="1.0" encoding="UTF-8"?>
<svg width="200" height="200" viewBox="0 0 200 200" fill="none" xmlns="http://www.w3.org/2000/svg">
  <rect width="200" height="200" fill="#F3F4F6"/>
  <path d="M100 80C93.3726 80 88 85.3726 88 92C88 98.6274 93.3726 104 100 104C106.627 104 112 98.6274 112 92C112 85.3726 106.627 80 100 80ZM100 100C95.5817 100 92 96.4183 92 92C92 87.5817 95.5817 84 100 84C104.418 84 108 87.5817 108 92C108 96.4183 104.418 100 100 100Z" fill="#9CA3AF"/>
  <path d="M84 60C77.3726 60 72 65.3726 72 72V128C72 134.627 77.3726 140 84 140H116C122.627 140 128 134.627 128 128V72C128 65.3726 122.627 60 116 60H84ZM116 136H84C79.5817 136 76 132.418 76 128V108L87.7574 96.2426C89.1213 94.8787 91.3284 94.8787 92.6923 96.2426L108 111.55L111.757 107.793C113.121 106.429 115.328 106.429 116.692 107.793L124 115.101V128C124 132.418 120.418 136 116 136ZM124 109.899L118.343 104.243C115.615 101.515 111.201 101.515 108.474 104.243L104.717 108L89.4099 92.6924C86.6817 89.9644 82.268 89.9644 79.5401 92.6924L76 96.2322V72C76 67.5817 79.5817 64 84 64H116C120.418 64 124 67.5817 124 72V109.899Z" fill="#9CA3AF"/>
</svg> 