<svg width="253" height="96" viewBox="0 0 253 96" fill="none" xmlns="http://www.w3.org/2000/svg">
<path d="M29.76 47.088C32.2773 47.5573 34.3467 48.816 35.968 50.864C37.5893 52.912 38.4 55.2587 38.4 57.904C38.4 60.2933 37.8027 62.4053 36.608 64.24C35.456 66.032 33.7707 67.44 31.552 68.464C29.3333 69.488 26.7093 70 23.68 70H4.416V25.328H22.848C25.8773 25.328 28.48 25.8187 30.656 26.8C32.8747 27.7813 34.5387 29.1467 35.648 30.896C36.8 32.6453 37.376 34.6293 37.376 36.848C37.376 39.4507 36.672 41.6267 35.264 43.376C33.8987 45.1253 32.064 46.3627 29.76 47.088ZM13.376 43.76H21.568C23.7013 43.76 25.344 43.2907 26.496 42.352C27.648 41.3707 28.224 39.984 28.224 38.192C28.224 36.4 27.648 35.0133 26.496 34.032C25.344 33.0507 23.7013 32.56 21.568 32.56H13.376V43.76ZM22.4 62.704C24.576 62.704 26.2613 62.192 27.456 61.168C28.6933 60.144 29.312 58.6933 29.312 56.816C29.312 54.896 28.672 53.4027 27.392 52.336C26.112 51.2267 24.384 50.672 22.208 50.672H13.376V62.704H22.4ZM50.085 30.32C48.5063 30.32 47.1837 29.8293 46.117 28.848C45.093 27.824 44.581 26.5653 44.581 25.072C44.581 23.5787 45.093 22.3413 46.117 21.36C47.1837 20.336 48.5063 19.824 50.085 19.824C51.6637 19.824 52.965 20.336 53.989 21.36C55.0557 22.3413 55.589 23.5787 55.589 25.072C55.589 26.5653 55.0557 27.824 53.989 28.848C52.965 29.8293 51.6637 30.32 50.085 30.32ZM54.501 34.544V70H45.541V34.544H54.501ZM73.7855 41.904V59.056C73.7855 60.2507 74.0628 61.1253 74.6175 61.68C75.2148 62.192 76.1962 62.448 77.5615 62.448H81.7215V70H76.0895C68.5375 70 64.7615 66.3307 64.7615 58.992V41.904H60.5375V34.544H64.7615V25.776H73.7855V34.544H81.7215V41.904H73.7855ZM103.59 70.448C100.475 70.448 97.6593 69.9147 95.142 68.848C92.6673 67.7813 90.7047 66.2453 89.254 64.24C87.8033 62.2347 87.0567 59.8667 87.014 57.136H96.614C96.742 58.9707 97.382 60.4213 98.534 61.488C99.7287 62.5547 101.35 63.088 103.398 63.088C105.489 63.088 107.131 62.5973 108.326 61.616C109.521 60.592 110.118 59.2693 110.118 57.648C110.118 56.3253 109.713 55.2373 108.902 54.384C108.091 53.5307 107.067 52.8693 105.83 52.4C104.635 51.888 102.971 51.3333 100.838 50.736C97.9367 49.8827 95.5687 49.0507 93.734 48.24C91.942 47.3867 90.3847 46.128 89.062 44.464C87.782 42.7573 87.142 40.496 87.142 37.68C87.142 35.0347 87.8033 32.7307 89.126 30.768C90.4487 28.8053 92.3047 27.312 94.694 26.288C97.0833 25.2213 99.814 24.688 102.886 24.688C107.494 24.688 111.227 25.8187 114.086 28.08C116.987 30.2987 118.587 33.4133 118.886 37.424H109.03C108.945 35.888 108.283 34.6293 107.046 33.648C105.851 32.624 104.251 32.112 102.246 32.112C100.497 32.112 99.0887 32.56 98.022 33.456C96.998 34.352 96.486 35.6533 96.486 37.36C96.486 38.5547 96.87 39.5573 97.638 40.368C98.4487 41.136 99.43 41.776 100.582 42.288C101.777 42.7573 103.441 43.312 105.574 43.952C108.475 44.8053 110.843 45.6587 112.678 46.512C114.513 47.3653 116.091 48.6453 117.414 50.352C118.737 52.0587 119.398 54.2987 119.398 57.072C119.398 59.4613 118.779 61.68 117.542 63.728C116.305 65.776 114.491 67.4187 112.102 68.656C109.713 69.8507 106.875 70.448 103.59 70.448ZM146.814 34.032C151.038 34.032 154.451 35.376 157.054 38.064C159.657 40.7093 160.958 44.4213 160.958 49.2V70H151.998V50.416C151.998 47.6 151.294 45.4453 149.886 43.952C148.478 42.416 146.558 41.648 144.126 41.648C141.651 41.648 139.689 42.416 138.238 43.952C136.83 45.4453 136.126 47.6 136.126 50.416V70H127.166V34.544H136.126V38.96C137.321 37.424 138.835 36.2293 140.67 35.376C142.547 34.48 144.595 34.032 146.814 34.032Z" fill="#28282B"/>
<path d="M222.376 39.664C223.528 38.0427 225.107 36.6987 227.112 35.632C229.16 34.5227 231.485 33.968 234.088 33.968C237.117 33.968 239.848 34.7147 242.28 36.208C244.755 37.7013 246.696 39.8347 248.104 42.608C249.555 45.3387 250.28 48.5173 250.28 52.144C250.28 55.7707 249.555 58.992 248.104 61.808C246.696 64.5813 244.755 66.736 242.28 68.272C239.848 69.808 237.117 70.576 234.088 70.576C231.485 70.576 229.181 70.0427 227.176 68.976C225.213 67.9093 223.613 66.5653 222.376 64.944V86.896H213.416V34.544H222.376V39.664ZM241.128 52.144C241.128 50.0107 240.68 48.176 239.784 46.64C238.931 45.0613 237.779 43.8667 236.328 43.056C234.92 42.2453 233.384 41.84 231.72 41.84C230.099 41.84 228.563 42.2667 227.112 43.12C225.704 43.9307 224.552 45.1253 223.656 46.704C222.803 48.2827 222.376 50.1387 222.376 52.272C222.376 54.4053 222.803 56.2613 223.656 57.84C224.552 59.4187 225.704 60.6347 227.112 61.488C228.563 62.2987 230.099 62.704 231.72 62.704C233.384 62.704 234.92 62.2773 236.328 61.424C237.779 60.5707 238.931 59.3547 239.784 57.776C240.68 56.1973 241.128 54.32 241.128 52.144Z" fill="#28282B"/>
<circle cx="186.5" cy="54.5" r="20.5" fill="#EB4231"/>
<path d="M195.953 57H178.112C178.112 57 176.353 65 186.781 65C197.209 65 195.953 57 195.953 57Z" fill="white"/>
<circle cx="182.5" cy="49.5" r="3.5" fill="white"/>
<circle cx="191.5" cy="49.5" r="3.5" fill="white"/>
</svg>
